PathFileType	4	(X/Y/Z)	D:\TRACE\spotREDO_2-26-24\spot_Both_Motion_3_9-platform.trc
DataRate	CameraRate	NumFrames	NumMarkers	Units	OrigDataRate	OrigDataStartFrame	OrigNumFrames
100.00	100.00	      36	5	mm	100.00	4376	      7000
Frame#	Time	Left_Front			Right_Front			Left_Aft			Right_Aft			Post			
		X1	Y1	Z1	X2	Y2	Z2	X3	Y3	Z3	X4	Y4	Z4	X5	Y5	Z5	

4376	43.750	-683.74841	-56.02202	-586.76453	731.10986	-40.23763	-502.35172	-755.83417	56.76112	626.41339	813.80280	64.76461	631.91931	10.64972	533.03577	-1045.26074	
4377	43.760	-683.38690	-55.83834	-586.60413	731.32617	-40.21620	-502.26233	-755.61511	56.71529	626.46820	814.07922	64.58678	632.00867	11.04704	533.25372	-1044.97266	
4378	43.770	-683.03491	-55.75190	-586.55273	731.58429	-40.04602	-502.21585	-755.41577	56.52660	626.54407	814.34216	64.26696	632.07025	11.35222	533.47546	-1044.77686	
4379	43.780	-682.78027	-55.65006	-586.55402	731.88562	-40.01200	-502.21588	-755.28088	56.35282	626.52161	814.46960	63.99897	632.01276	11.65169	533.76556	-1044.68384	
4380	43.790	-682.68561	-55.46008	-586.51990	732.04108	-39.83509	-502.22534	-755.06122	56.25325	626.61890	814.59778	63.86152	632.07562	12.01849	533.97925	-1044.61206	
4381	43.800	-682.41028	-55.31551	-586.60333	732.42773	-39.62165	-502.07935	-754.78827	56.19052	626.69067	814.92157	63.81942	632.18579	12.36736	534.16443	-1044.52600	
4382	43.810	-682.26013	-55.08311	-586.61115	732.83264	-39.38322	-501.99600	-754.35974	56.16252	626.80707	815.25739	63.72020	632.24622	12.49745	534.37109	-1044.42920	
4383	43.820	-682.21606	-54.87408	-586.50793	733.09698	-39.30481	-502.08026	-754.04669	55.81883	626.91174	815.50836	63.47897	632.27643	12.55444	534.71155	-1044.46204	
4384	43.830	-682.01178	-54.78059	-586.45526	733.29846	-39.25665	-502.06894	-753.78943	55.57417	626.95282	815.58582	63.13263	632.23663	12.94262	535.09888	-1044.29138	
4385	43.840	-681.85797	-54.54083	-586.45209	733.51801	-39.03158	-502.04996	-753.56763	55.32942	627.02911	815.64093	63.01314	632.29181	13.26805	535.36609	-1044.17078	
4386	43.850	-681.54211	-54.22955	-586.45715	733.59894	-38.91194	-502.00848	-753.38794	55.23647	627.12683	815.82678	62.94918	632.35382	13.21033	535.75031	-1044.14636	
4387	43.860	-681.29022	-54.01515	-586.44153	733.84137	-38.71275	-501.94904	-753.04926	55.20965	627.15619	816.03119	62.86891	632.48315	13.39551	536.01752	-1043.81250	
4388	43.870	-681.02698	-53.80915	-586.46198	733.91516	-38.39445	-502.06656	-752.80365	55.11637	627.21613	816.51294	62.65030	632.61432	13.46949	536.28357	-1043.60852	
4389	43.880	-680.84662	-53.66047	-586.46851	733.98987	-38.26937	-502.09689	-752.74847	55.01101	627.21796	816.84863	62.31434	632.66229	13.61914	536.69989	-1043.31555	
4390	43.890	-680.57776	-53.52792	-586.45874	734.21387	-38.16288	-502.02008	-752.57184	54.77756	627.21265	817.21472	62.10868	632.74115	13.69639	537.21783	-1043.05457	
4391	43.900	-680.45905	-53.46158	-586.43127	734.42224	-38.04138	-501.98212	-752.37762	54.42575	627.31354	817.38715	62.05719	632.74670	14.12338	537.63617	-1042.85803	
4392	43.910	-679.92462	-53.19852	-586.25049	734.62048	-37.69925	-501.90179	-752.10779	54.10635	627.48383	817.51416	61.97793	632.81537	14.60821	538.16199	-1042.59399	
4393	43.920	-679.96820	-52.90559	-586.36163	735.02344	-37.33965	-501.80917	-751.92352	53.96373	627.53180	817.65247	61.84667	632.89526	14.86236	538.41943	-1042.33936	
4394	43.930	-679.77869	-52.60289	-586.38617	735.21210	-37.19991	-501.73196	-751.69965	53.75980	627.65204	817.96283	61.55177	633.00427	14.86304	538.80737	-1042.01074	
4395	43.940	-679.21472	-52.61879	-586.23535	735.41205	-37.08128	-501.68436	-751.60242	53.45390	627.72620	818.29895	61.08656	633.07330	15.61758	539.27173	-1041.47302	
4396	43.950	-678.97992	-52.32137	-586.16876	735.65247	-36.85071	-501.61810	-751.42059	53.11184	627.93665	818.36993	60.88399	633.14032	15.87534	539.67224	-1041.09888	
4397	43.960	-678.86499	-52.14146	-586.19531	735.96997	-36.68785	-501.39203	-751.28320	52.72053	628.02960	818.41174	60.56265	633.31683	15.53176	540.21863	-1041.29553	
4398	43.970	-678.74213	-51.74315	-586.04492	736.02515	-36.42643	-501.38675	-751.22827	52.66251	628.09692	818.56165	60.27033	633.48065	15.78078	540.61243	-1040.91748	
4399	43.980	-678.62677	-51.28846	-585.92743	736.11566	-36.05399	-501.35489	-750.97223	52.36590	628.20477	818.64319	59.90124	633.59259	15.82985	541.35699	-1040.46045	
4400	43.990	-678.54529	-50.86287	-585.91663	736.16925	-35.73599	-501.31879	-750.77844	52.04984	628.28259	818.84491	59.49742	633.62109	16.66520	541.83600	-1040.32056	
4401	44.000	-678.35699	-50.51027	-585.79449	736.32068	-35.40141	-501.27722	-750.53809	51.44050	628.40497	818.94263	58.87471	633.77277	16.96984	542.26794	-1039.70313	
4402	44.010	-678.19226	-50.13684	-585.68408	736.28247	-34.83132	-501.35889	-750.31555	51.07042	628.47235	819.04858	58.61498	633.83740	15.95630	543.19861	-1038.71985	
4403	44.020	-678.09106	-49.84516	-585.61505	736.30872	-34.53516	-501.36337	-750.18787	50.73502	628.58282	819.13867	58.39625	633.96692	16.29011	543.90356	-1038.21973	
4404	44.030	-678.05188	-49.50909	-585.56427	736.79449	-34.43733	-500.97122	-750.02368	50.31658	628.74695	819.38776	58.09818	634.15137	16.25084	544.55872	-1037.88269	
4405	44.040	-677.95026	-49.18513	-585.49768	736.78247	-34.11394	-501.08661	-749.97522	49.98860	628.85309	819.58997	57.70840	634.35364	16.04852	545.17755	-1037.65698	
4406	44.050	-677.95972	-48.86065	-585.49402	736.76978	-33.74350	-501.16116	-750.04089	49.51849	628.97620	819.56415	57.35618	634.37091	15.92170	546.03149	-1037.01526	
4407	44.060	-677.84460	-48.50732	-585.34802	736.88654	-33.31614	-501.13992	-749.94403	49.08502	629.11713	819.50488	56.97472	634.39380	16.44574	546.45819	-1036.38623	
4408	44.070	-677.69598	-47.87762	-585.21753	737.00256	-32.95040	-500.99191	-749.80188	48.73195	629.23834	819.45563	56.39266	634.65521	16.21808	547.17938	-1036.37927	
4409	44.080	-677.62067	-47.45264	-585.23718	736.95459	-32.70409	-500.90295	-749.79889	48.48372	629.33667	819.51453	56.00137	634.87762	16.17616	548.07367	-1036.03479	
4410	44.090	-677.63641	-46.93659	-585.21600	737.09521	-32.31779	-500.60110	-749.85498	48.08447	629.46167	819.69440	55.64181	635.11798	16.80727	548.59894	-1036.25928	
4411	44.100	-677.70905	-46.55016	-585.11731	737.06696	-31.74763	-500.61694	-749.68195	47.52351	629.75494	819.91357	55.29890	635.32623	16.63651	549.31787	-1035.81592	
